:version 1.10
:name ASF
:units
  mass 1
  length 1
  angle deg
:documentation
  ASF file generated by Kaydara
:root
  axis xyz
  order  tx ty tz rx ry rz
  position 0 0 0
  orientation 0 0 0
:bonedata
  begin
    id 1
    name RightUpLegDummy
    direction -1 2.30186e-007 8.31532e-007
    length 4.46685
    axis 0 0 0 xyz
  end
  begin
    id 2
    name RightUpLeg
    direction -2.30187e-007 -1 1.24343e-010
    length 16.4045
    axis -3.49089 -0.000906625 0.000286804 xyz
    dof rx ry rz
  end
  begin
    id 3
    name RightLeg
    direction -2.30181e-007 -1 -4.17157e-009
    length 17.5097
    axis 3.68512 0.0193738 -0.131023 xyz
    dof rx ry rz
  end
  begin
    id 4
    name RightFoot
    direction 8.31421e-007 -4.51202e-011 1
    length 6.49508
    axis 4.81691e-005 -0.120479 -0.188788 xyz
    dof rx ry rz
  end
  begin
    id 5
    name RightToes
    direction 0.00124746 -0.014064 0.9999
    length 3.85082
    axis 0.000481921 0.542163 -0.142578 xyz
    dof rx ry rz
  end
  begin
    id 6
    name SpineDummy
    direction 0.0717043 0.9409 -0.331007
    length 10.0032
    axis 0 0 0 xyz
  end
  begin
    id 7
    name Spine
    direction 2.30186e-007 1 4.58806e-011
    length 9.84055
    axis -0.001389 0.000121418 2.40972e-006 xyz
    dof rx ry rz
  end
  begin
    id 8
    name Spine1
    direction 0 0 0
    length 0
    axis -0.001389 0.000121451 1.30017e-006 xyz
    dof rx ry rz
  end
  begin
    id 9
    name HEadDummy
    direction -0.00347485 0.950688 -0.310128
    length 8.00997
    axis -0.001389 0.000121451 1.30017e-006 xyz
  end
  begin
    id 10
    name HEad
    direction -0.0222688 0.980941 0.193023
    length 5.12695
    axis -0.001389 0.000121451 1.30017e-006 xyz
    dof rx ry rz
  end
  begin
    id 11
    name LeftShoulder1Dummy
    direction 0.988871 0.146793 -0.0242004
    length 3.5792
    axis -0.001389 0.000121451 1.30017e-006 xyz
  end
  begin
    id 12
    name LeftShoulder1
    direction 0.993832 0.108932 0.020779
    length 4.16823
    axis -0.001389 0.000121451 1.30017e-006 xyz
    dof rx ry rz
  end
  begin
    id 13
    name LeftArm
    direction 1 3.44807e-006 -8.31404e-007
    length 9.91437
    axis -23.1894 0.134784 0.967509 xyz
    dof rx ry rz
  end
  begin
    id 14
    name LeftForeArm
    direction 1 3.44842e-006 -8.31581e-007
    length 9.08575
    axis -9.91835 -0.06569 -0.177793 xyz
    dof rx ry rz
  end
  begin
    id 15
    name LeftHand
    direction 0.992938 -0.0411636 0.11126
    length 5.32135
    axis -0.00960232 -0.00340091 0.185173 xyz
    dof rx ry rz
  end
  begin
    id 16
    name RightShoulderDummy
    direction -0.988871 0.146793 -0.0241962
    length 3.5792
    axis -0.001389 0.000121451 1.30017e-006 xyz
  end
  begin
    id 17
    name RightShoulder
    direction -0.993832 0.108933 0.0207785
    length 4.16823
    axis 0.215806 0.000203643 -0.0068026 xyz
    dof rx ry rz
  end
  begin
    id 18
    name RightArm
    direction -1 3.90912e-006 8.31284e-007
    length 9.91437
    axis -23.2009 -0.134239 -0.964101 xyz
    dof rx ry rz
  end
  begin
    id 19
    name RightForeArm
    direction -1 3.90882e-006 8.31502e-007
    length 9.08575
    axis -9.92322 0.0658061 0.178867 xyz
    dof rx ry rz
  end
  begin
    id 20
    name RightHand
    direction -0.992843 -0.0414603 0.112003
    length 5.28593
    axis -0.00960638 0.00330671 -0.185228 xyz
    dof rx ry rz
  end
  begin
    id 21
    name LeftUpLegDummy
    direction 1 -2.30186e-007 -8.31532e-007
    length 4.46685
    axis 0 0 0 xyz
  end
  begin
    id 22
    name LeftUpLeg
    direction -2.30187e-007 -1 6.00931e-010
    length 16.4045
    axis -3.48766 0.00143442 -0.000524262 xyz
    dof rx ry rz
  end
  begin
    id 23
    name LeftLeg
    direction -2.30187e-007 -1 1.6669e-009
    length 17.5097
    axis 3.68178 -0.00654042 -0.000285133 xyz
    dof rx ry rz
  end
  begin
    id 24
    name LeftFoot
    direction 8.31532e-007 -4.54478e-011 1
    length 6.49508
    axis 1.87233e-006 4.66016e-005 -8.6538e-006 xyz
    dof rx ry rz
  end
  begin
    id 25
    name LeftToes
    direction 0.00818058 -0.00485161 0.999955
    length 3.85048
    axis 1.06247e-005 4.65869e-005 -8.65513e-006 xyz
    dof rx ry rz
  end
:hierarchy
  begin
    root RightUpLegDummy SpineDummy LeftUpLegDummy
    RightUpLegDummy RightUpLeg
    RightUpLeg RightLeg
    RightLeg RightFoot
    RightFoot RightToes
    SpineDummy Spine
    Spine Spine1
    Spine1 HEadDummy LeftShoulder1Dummy RightShoulderDummy
    HEadDummy HEad
    LeftShoulder1Dummy LeftShoulder1
    LeftShoulder1 LeftArm
    LeftArm LeftForeArm
    LeftForeArm LeftHand
    RightShoulderDummy RightShoulder
    RightShoulder RightArm
    RightArm RightForeArm
    RightForeArm RightHand
    LeftUpLegDummy LeftUpLeg
    LeftUpLeg LeftLeg
    LeftLeg LeftFoot
    LeftFoot LeftToes
  end

:SAMPLES-PER-SECOND 30
:FULLY-SPECIFIED
:DEGREES
81
root  -69.2234 33.7443 39.6021 -4.80605 78.3148 -6.63681
RightUpLeg  1.00722 -15.1328 -1.92657
RightLeg  12.901 -0.315778 -0.050211
RightFoot  -3.1161 -0.00885765 0.0519104
RightToes  -31.6509 -0.163162 -0.270599
Spine  4.26508 -3.08545 2.40906
Spine1  8.25594 -5.92487 3.72861
HEad  30.0529 25.3335 -4.39905
LeftShoulder1  0 -2.42657e-020 -4.95415e-022
LeftArm  -59.7386 13.5423 -89.3697
LeftForeArm  52.8852 -16.4564 -2.95035
LeftHand  0.476955 -6.97824 -8.18851
RightShoulder  0 2.42657e-020 1.07489e-018
RightArm  -53.9569 -26.0563 85.1453
RightForeArm  77.4868 78.9429 114.692
RightHand  1.7076 14.8515 13.4218
LeftUpLeg  -10.0991 13.1652 9.91173
LeftLeg  10.0726 -6.29941 -0.705277
LeftFoot  12.4186 0.151889 -1.39599
LeftToes  -25.6307 2.34596e-006 -6.06653e-008
82
root  -69.3948 33.7827 39.6607 -5.4866 77.6054 -7.65535
RightUpLeg  0.392036 -14.8171 -1.33373
RightLeg  12.6867 -0.0458652 -0.00620663
RightFoot  -2.56905 -0.00473461 0.0228463
RightToes  -31.6845 -0.162707 -0.270169
Spine  4.50154 -3.04999 2.57678
Spine1  8.76506 -5.79692 3.81034
HEad  30.2488 26.0426 -4.95062
LeftShoulder1  0 -2.42657e-020 -4.95415e-022
LeftArm  -57.4595 13.8166 -88.8582
LeftForeArm  51.4606 -18.0309 -3.25698
LeftHand  0.510693 -7.24855 -8.42748
RightShoulder  0 2.42657e-020 1.07489e-018
RightArm  -52.6283 -23.6361 82.6693
RightForeArm  95.8599 76.9691 129.752
RightHand  1.34491 15.7742 10.0597
LeftUpLeg  -10.9525 13.9684 10.2764
LeftLeg  10.9674 -6.32308 -0.807962
LeftFoot  12.3449 0.15087 -1.39498
LeftToes  -25.163 2.34596e-006 -6.06653e-008
83
root  -69.5784 33.8117 39.6775 -5.04411 76.759 -7.82945
RightUpLeg  -0.561767 -14.5635 -0.924426
RightLeg  12.4907 0.518924 0.0814816
RightFoot  -2.1578 -0.000607619 -0.00969571
RightToes  -31.9109 -0.162647 -0.270093
Spine  4.61533 -2.86431 2.79655
Spine1  9.03786 -5.37129 4.02624
HEad  30.5719 26.6111 -5.62057
LeftShoulder1  0 -2.42657e-020 -4.95415e-022
LeftArm  -54.1984 14.4341 -88.5435
LeftForeArm  50.0315 -19.8952 -3.62697
LeftHand  0.556209 -7.58571 -8.75298
RightShoulder  0 2.42657e-020 1.07489e-018
RightArm  -53.0572 -21.0551 81.5896
RightForeArm  115.657 73.1029 144.005
RightHand  1.11518 16.3046 8.14621
LeftUpLeg  -12.3756 15.0086 10.3484
LeftLeg  12.4046 -6.41786 -0.983965
LeftFoot  12.0993 0.147261 -1.38947
LeftToes  -24.5599 2.34596e-006 -6.06653e-008
84
root  -69.7121 33.8523 39.6358 -3.71938 76.185 -6.81909
RightUpLeg  -1.15471 -14.3616 -1.01705
RightLeg  12.3031 0.940668 0.143698
RightFoot  -1.73607 0.00195077 -0.0243001
RightToes  -32.6258 -0.163053 -0.270439
Spine  4.87833 -2.63814 2.84836
Spine1  9.59282 -4.8406 3.88653
HEad  30.6746 26.8793 -6.07955
LeftShoulder1  0 -2.42657e-020 -4.95415e-022
LeftArm  -50.6949 15.8301 -88.2536
LeftForeArm  49.3973 -25.2291 -4.73407
LeftHand  0.647498 -8.43132 -9.14473
RightShoulder  0 2.42657e-020 1.07489e-018
RightArm  -52.8079 -19.0094 80.2862
RightForeArm  133.635 67.8641 153.847
RightHand  1.00748 17.5882 6.87802
LeftUpLeg  -13.8073 15.3849 10.079
LeftLeg  14.3204 -6.14756 -1.15407
LeftFoot  12.1912 0.143244 -1.34129
LeftToes  -24.8988 2.34596e-006 -6.06653e-008
85
root  -69.8099 33.9116 39.5273 -1.38896 75.9293 -4.664
RightUpLeg  -1.62296 -13.7803 -1.47363
RightLeg  12.2151 0.666334 0.101082
RightFoot  -1.40732 0.00203635 -0.00992845
RightToes  -32.8459 -0.163997 -0.271272
Spine  5.20994 -2.4595 2.7478
Spine1  10.2583 -4.38846 3.46069
HEad  30.4704 27.0657 -6.33024
LeftShoulder1  0 -2.42657e-020 -4.95415e-022
LeftArm  -46.7477 17.8055 -87.5535
LeftForeArm  48.9673 -31.7556 -6.23605
LeftHand  0.702858 -9.47574 -8.84142
RightShoulder  0 2.42657e-020 1.07489e-018
RightArm  -51.3457 -17.3224 79.1599
RightForeArm  149.361 62.1719 160.046
RightHand  0.424731 20.6647 2.70019
LeftUpLeg  -15.6241 14.8159 9.52079
LeftLeg  17.0798 -5.95401 -1.41739
LeftFoot  12.8198 0.152915 -1.36108
LeftToes  -30.9726 2.34596e-006 -6.06653e-008
86
root  -69.8883 33.9834 39.3921 0.962555 75.6576 -2.42572
RightUpLeg  -1.95366 -13.1924 -2.06188
RightLeg  11.9516 0.447505 0.0661936
RightFoot  -1.02108 0.00142417 0.0028563
RightToes  -33.0597 -0.165548 -0.272659
Spine  5.57162 -2.20175 2.58143
Spine1  10.9753 -3.77582 2.92975
HEad  30.0986 26.9751 -6.0592
LeftShoulder1  0 -2.42657e-020 -4.95415e-022
LeftArm  -42.5463 19.9431 -86.3688
LeftForeArm  48.3843 -38.6416 -8.08094
LeftHand  0.62328 -9.72711 -7.69049
RightShoulder  0 2.42657e-020 1.07489e-018
RightArm  -48.6941 -15.879 77.6083
RightForeArm  165.591 57.2847 163.643
RightHand  -0.0234362 24.5718 0.262464
LeftUpLeg  -17.6474 14.0873 9.12858
LeftLeg  20.2511 -6.21399 -1.84697
LeftFoot  13.8992 0.187397 -1.53733
LeftToes  -28.2707 2.34596e-006 -6.06653e-008
87
root  -69.9589 34.0368 39.2076 3.36812 75.1543 -0.266846
RightUpLeg  -2.6094 -12.8354 -2.7438
RightLeg  12.0794 0.580757 0.0868601
RightFoot  -0.725128 -0.000338079 0.0180762
RightToes  -33.6346 -0.169734 -0.276417
Spine  5.90601 -1.84346 2.38482
Spine1  11.6256 -2.96262 2.38462
HEad  29.694 26.7838 -5.60959
LeftShoulder1  0 -2.42657e-020 -4.95415e-022
LeftArm  -39.2226 21.8694 -84.9845
LeftForeArm  47.5564 -45.0089 -10.148
LeftHand  0.550804 -9.84125 -6.76587
RightShoulder  0 2.42657e-020 1.07489e-018
RightArm  -43.1363 -14.0194 75.8104
RightForeArm  176.765 53.402 165.858
RightHand  -1.06076 24.4652 -4.52101
LeftUpLeg  -19.792 12.1833 9.24595
LeftLeg  23.7508 -7.76979 -2.83041
LeftFoot  14.8124 0.268811 -2.06777
LeftToes  -29.4998 2.34596e-006 -6.06653e-008
88
root  -70.0186 34.034 38.9783 5.08109 74.1642 1.22089
RightUpLeg  -3.84126 -12.5753 -3.45167
RightLeg  13.1815 1.30916 0.219977
RightFoot  -0.967895 -0.00295191 0.0280947
RightToes  -34.7295 -0.177808 -0.283457
Spine  6.29588 -1.34431 2.20527
Spine1  12.3767 -1.87128 1.90086
HEad  29.1579 26.5556 -5.23952
LeftShoulder1  0 -2.42657e-020 -4.95415e-022
LeftArm  -36.9484 23.1523 -83.5975
LeftForeArm  46.3498 -50.3548 -12.2923
LeftHand  0.566277 -9.87665 -6.92151
RightShoulder  0 2.42657e-020 1.07489e-018
RightArm  -35.201 -11.8698 74.1683
RightForeArm  -175.231 52.3309 166.401
RightHand  -2.07116 24.1014 -9.31219
LeftUpLeg  -21.5834 10.1807 10.0785
LeftLeg  26.9417 -11.077 -4.7242
LeftFoot  15.2196 0.415301 -3.10774
LeftToes  -29.6271 2.34596e-006 -6.06653e-008
89
root  -70.0266 33.9643 38.6865 6.52885 72.413 2.53922
RightUpLeg  -6.16389 -12.1534 -4.38502
RightLeg  16.3956 2.57294 0.580391
RightFoot  -1.96954 -0.00660135 -0.00649397
RightToes  -35.9008 -0.186593 -0.290815
Spine  6.68252 -0.648795 1.99364
Spine1  13.1085 -0.371066 1.35997
HEad  28.8691 26.5567 -4.99395
LeftShoulder1  0 -2.42657e-020 -4.95415e-022
LeftArm  -35.2013 23.7416 -82.2742
LeftForeArm  45.4853 -54.0028 -14.0688
LeftHand  0.581204 -9.82269 -7.13087
RightShoulder  0 2.42657e-020 1.07489e-018
RightArm  -27.8326 -9.72055 72.5128
RightForeArm  -169.398 54.3867 165.354
RightHand  -2.39696 24.0455 -10.8532
LeftUpLeg  -22.2458 8.06319 11.3668
LeftLeg  28.2352 -13.0918 -5.91145
LeftFoot  14.0568 0.424141 -3.43925
LeftToes  -28.477 2.34596e-006 -6.06653e-008
